#!OML:ASF H:\MichaelJackson\Top Level 1\Subject 1\Session 1\male.ASF
:FULLY-SPECIFIED
:DEGREES
56
root -13.613 16.7899 -34.8871 15.5209 0.297732 -3.05125
lowerback -8.54639 1.91729 -10.9709
upperback -6.96019 3.40225 8.83846
thorax -4.00091 2.58714 16.3997
lowerneck -3.75714 -1.89205 -8.32199
upperneck -3.38058 -2.23078 0.170435
head -0.324705 -1.01942 1.43175
rclavicle 1.68967e-014 3.97569e-014
rhumerus -43.3219 25.2694 -81.2914
rradius 35.9758
rwrist 10.967
rhand -20.5992 -17.6463
rfingers 7.12502
rthumb 5.7613 -47.5479
lclavicle 1.68967e-014 3.97569e-014
lhumerus -46.4039 7.91715 97.8772
lradius 42.5548
lwrist 3.13596
lhand -3.56215 10.863
lfingers 7.12502
lthumb 22.1744 39.6112
rfemur -25.1377 2.25334 25.7851
rtibia 36.951
rfoot -27.2636 -27.1436
rtoes -19.0535
lfemur -45.8966 17.379 -22.3319
ltibia 49.9395
lfoot -21.3209 -2.76834
ltoes 35.7308
57
root -13.5972 16.7781 -34.8443 15.6446 0.393245 -3.1681
lowerback -8.68027 1.82241 -11.1077
upperback -7.08824 3.29822 9.00535
thorax -4.06084 2.56428 16.7026
lowerneck -3.70775 -1.81434 -8.46944
upperneck -3.52788 -2.13262 0.0579315
head -0.383425 -0.963724 1.42383
rclavicle 3.33958e-014 -2.06736e-014
rhumerus -43.3914 25.7398 -81.1661
rradius 36.218
rwrist 11.0751
rhand -20.8359 -17.7253
rfingers 7.12502
rthumb 5.5328 -47.6331
lclavicle 3.33958e-014 -2.06736e-014
lhumerus -46.7754 8.60484 97.6796
lradius 42.7592
lwrist 3.46156
lhand -3.03748 11.67
lfingers 7.12502
lthumb 22.678 40.3575
rfemur -25.2968 2.01974 25.9277
rtibia 37.3732
rfoot -27.5136 -27.1962
rtoes -19.0973
lfemur -46.2183 17.0315 -22.1168
ltibia 49.6684
lfoot -21.1673 -2.24884
ltoes 36.6857
58
root -13.5796 16.7888 -34.794 15.7804 0.530244 -3.21736
lowerback -8.91386 1.67206 -11.374
upperback -7.2334 3.13619 9.22346
thorax -4.07904 2.51972 17.1608
lowerneck -3.61597 -1.71669 -8.77816
upperneck -3.4974 -2.00091 0.0671287
head -0.392352 -0.894986 1.48335
rclavicle 1.10325e-014 -4.13472e-014
rhumerus -43.4276 26.706 -80.9901
rradius 36.4975
rwrist 10.6984
rhand -20.4144 -17.7607
rfingers 7.12502
rthumb 5.93978 -47.6575
lclavicle 1.10325e-014 -4.13472e-014
lhumerus -47.1973 9.55995 97.3819
lradius 42.8367
lwrist 3.2388
lhand -1.41033 10.2479
lfingers 7.12502
lthumb 24.2389 38.7359
rfemur -25.2538 1.84915 25.9719
rtibia 37.4254
rfoot -27.331 -27.4181
rtoes -19.7288
lfemur -46.7003 16.8328 -22.2376
ltibia 49.1306
lfoot -20.6008 -1.71376
ltoes 34.5955
59
root -13.5629 16.7831 -34.7435 15.8741 0.656944 -3.21757
lowerback -9.08906 1.51125 -11.6608
upperback -7.43016 2.9568 9.39826
thorax -4.17722 2.47648 17.5766
lowerneck -3.44832 -1.64606 -8.94347
upperneck -3.39136 -1.91903 -0.0780673
head -0.391327 -0.854842 1.46722
rclavicle -4.92986e-014 -6.20208e-014
rhumerus -43.5133 27.5925 -80.8451
rradius 36.6399
rwrist 10.5446
rhand -19.3725 -17.6378
rfingers 7.12502
rthumb 6.94562 -47.5038
lclavicle -4.92986e-014 -6.20208e-014
lhumerus -47.7985 10.3456 97.0996
lradius 43.2084
lwrist 3.3326
lhand -0.182925 11.6664
lfingers 7.12502
lthumb 25.4152 39.9922
rfemur -25.1506 1.73511 25.9686
rtibia 37.4431
rfoot -27.2036 -27.563
rtoes -20.2362
lfemur -46.8763 16.5719 -22.2239
ltibia 48.6064
lfoot -20.5946 -2.00516
ltoes 34.9131
60
root -13.5439 16.7522 -34.6889 15.865 0.852501 -3.31457
lowerback -9.20431 1.3526 -11.8463
upperback -7.58601 2.76914 9.6064
thorax -4.25157 2.42046 17.9679
lowerneck -3.21354 -1.53332 -9.15898
upperneck -3.40552 -1.78942 -0.144336
head -0.440398 -0.786264 1.48718
rclavicle 7.35503e-015 4.29375e-014
rhumerus -43.5898 28.1341 -80.5223
rradius 36.9862
rwrist 10.4487
rhand -19.0216 -17.6027
rfingers 7.12502
rthumb 7.28433 -47.4573
lclavicle 7.35503e-015 4.29375e-014
lhumerus -48.3801 11.5264 96.3871
lradius 42.9564
lwrist 3.86762
lhand 2.17438 7.67663
lfingers 7.12502
lthumb 27.6713 35.6612
rfemur -24.9631 1.27421 26.112
rtibia 37.4932
rfoot -26.8974 -27.5633
rtoes -21.2253
lfemur -46.6158 16.0678 -21.8657
ltibia 48.0723
lfoot -21.4759 -3.4281
ltoes 36.2923
61
root -13.5236 16.7488 -34.6325 15.6651 1.09347 -3.42977
lowerback -9.03714 1.23297 -11.8872
upperback -7.71858 2.60035 9.76242
thorax -4.44534 2.37182 18.1854
lowerneck -3.1039 -1.44677 -9.35865
upperneck -3.29301 -1.67744 -0.139226
head -0.427415 -0.731603 1.52549
rclavicle -1.8487e-014 -1.59028e-015
rhumerus -43.1765 28.1942 -80.1207
rradius 36.5933
rwrist 10.8605
rhand -18.7601 -16.9693
rfingers 7.12502
rthumb 7.5367 -46.8151
lclavicle -1.8487e-014 -1.59028e-015
lhumerus -49.0126 12.1815 96.0284
lradius 43.4622
lwrist 4.48913
lhand 2.93217 10.8947
lfingers 7.12502
lthumb 28.3957 38.7608
rfemur -24.5411 0.568721 26.2937
rtibia 37.5442
rfoot -26.9871 -27.2783
rtoes -21.5291
lfemur -46.5841 15.8063 -21.6785
ltibia 47.5347
lfoot -21.395 -3.50655
ltoes 37.3756
62
root -13.5006 16.7408 -34.5688 15.6921 1.34306 -3.51768
lowerback -9.26372 1.06837 -11.934
upperback -7.87167 2.40239 9.88473
thorax -4.42656 2.28907 18.3796
lowerneck -2.95212 -1.34465 -9.5451
upperneck -3.25612 -1.55143 -0.0766242
head -0.445863 -0.6676 1.5811
rclavicle 5.88403e-014 7.79236e-014
rhumerus -43.9772 29.183 -80.2102
rradius 37.8751
rwrist 10.0053
rhand -18.4476 -17.1064
rfingers 7.12502
rthumb 7.83836 -46.9411
lclavicle 5.88403e-014 7.79236e-014
lhumerus -49.6299 12.5852 95.8709
lradius 44.4271
lwrist 5.56685
lhand 4.47032 12.6075
lfingers 7.12502
lthumb 29.8646 40.2192
rfemur -24.3897 -0.591515 26.4767
rtibia 37.599
rfoot -27.1411 -26.6335
rtoes -22.0036
lfemur -46.5967 15.3694 -21.4968
ltibia 47.0005
lfoot -20.9632 -3.64238
ltoes 37.099
63
root -13.4775 16.7327 -34.5031 15.6103 1.65456 -3.61916
lowerback -9.35835 0.856032 -12.0689
upperback -8.07038 2.13682 10.1032
thorax -4.5206 2.19643 18.7524
lowerneck -2.55481 -1.1915 -9.79865
upperneck -3.27885 -1.38786 -0.0762672
head -0.527316 -0.581125 1.63069
rclavicle -1.55052e-014 -1.90833e-014
rhumerus -43.3569 28.6893 -79.4144
rradius 37.2156
rwrist 10.7467
rhand -18.0072 -16.4058
rfingers 7.12502
rthumb 8.26338 -46.2242
lclavicle -1.55052e-014 -1.90833e-014
lhumerus -50.4413 13.3956 95.4704
lradius 45.0529
lwrist 6.38796
lhand 5.29358 14.7749
lfingers 7.12502
lthumb 30.65 42.2425
rfemur -24.0747 -1.92853 26.6811
rtibia 37.5568
rfoot -27.0441 -25.8808
rtoes -22.6439
lfemur -46.575 15.0447 -21.3745
ltibia 46.45
lfoot -20.5852 -3.79922
ltoes 37.1309
64
root -13.4523 16.723 -34.4348 15.4795 1.99453 -3.82385
lowerback -9.41906 0.667651 -12.0918
upperback -8.22377 1.89365 10.3411
thorax -4.58132 2.10317 19.0764
lowerneck -2.41676 -1.07668 -10.0327
upperneck -3.13789 -1.24221 -0.0741524
head -0.512802 -0.51048 1.67428
rclavicle 3.65764e-014 3.97569e-014
rhumerus -43.8095 29.3748 -79.0849
rradius 38.1572
rwrist 10.1732
rhand -20.4217 -15.968
rfingers 7.12502
rthumb 5.9327 -45.8649
lclavicle 3.65764e-014 3.97569e-014
lhumerus -51.1784 14.2443 95.0386
lradius 45.5522
lwrist 6.54202
lhand 6.00388 14.9766
lfingers 7.12502
lthumb 31.327 42.3152
rfemur -23.7281 -3.59351 26.9949
rtibia 37.4529
rfoot -26.7279 -24.699
rtoes -23.1273
lfemur -46.412 14.4971 -20.9511
ltibia 45.8572
lfoot -20.0124 -4.05685
ltoes 37.9227
65
root -13.4226 16.7124 -34.3635 15.2363 2.36836 -3.96644
lowerback -9.34216 0.502368 -12.0132
upperback -8.38257 1.6617 10.4587
thorax -4.71026 2.00868 19.1684
lowerneck -2.20603 -0.99357 -10.0575
upperneck -3.03951 -1.15366 -0.104767
head -0.522265 -0.468899 1.67014
rclavicle -8.54774e-015 -7.79236e-014
rhumerus -44.3931 30.0638 -78.9335
rradius 39.3076
rwrist 9.28965
rhand -19.7092 -16.0781
rfingers 7.12502
rthumb 6.62052 -45.9546
lclavicle -8.54774e-015 -7.79236e-014
lhumerus -51.9826 14.8488 94.4612
lradius 46.1375
lwrist 6.43695
lhand 6.95653 16.102
lfingers 7.12502
lthumb 32.2343 43.2607
rfemur -23.318 -5.72331 27.2338
rtibia 37.3713
rfoot -26.449 -23.0138
rtoes -23.1989
lfemur -46.0875 13.7191 -20.4879
ltibia 45.2937
lfoot -19.4298 -4.09535
ltoes 40.0535
66
root -13.3912 16.7205 -34.2876 14.9059 2.80187 -4.17379
lowerback -9.2395 0.300456 -11.9642
upperback -8.5198 1.38162 10.6872
thorax -4.81888 1.89389 19.4267
lowerneck -1.9609 -0.886233 -10.1779
upperneck -2.90143 -1.03532 -0.189333
head -0.526659 -0.412553 1.66533
rclavicle -6.52014e-014 1.59028e-015
rhumerus -44.5879 30.5888 -78.4815
rradius 39.912
rwrist 8.60704
rhand -19.0952 -15.7129
rfingers 7.12502
rthumb 7.21329 -45.57
lclavicle -6.52014e-014 1.59028e-015
lhumerus -52.8048 15.604 93.9887
lradius 46.6803
lwrist 6.5393
lhand 7.74284 16.7199
lfingers 7.12502
lthumb 32.9825 43.7238
rfemur -22.8019 -7.82883 27.4668
rtibia 37.3378
rfoot -26.4496 -21.0935
rtoes -22.4638
lfemur -45.9972 12.9098 -19.9956
ltibia 44.8773
lfoot -18.1957 -4.10563
ltoes 42.6914
67
root -13.3551 16.7064 -34.2157 14.482 3.29969 -4.4084
lowerback -9.00135 0.120293 -11.7764
upperback -8.63993 1.11218 10.8755
thorax -4.97417 1.77579 19.5349
lowerneck -1.7276 -0.770194 -10.321
upperneck -2.77807 -0.90243 -0.144806
head -0.533955 -0.348909 1.70687
rclavicle -2.06736e-014 7.95139e-015
rhumerus -44.9035 30.411 -77.7777
rradius 40.7242
rwrist 8.53435
rhand -18.2413 -15.3747
rfingers 7.12502
rthumb 8.03746 -45.2018
lclavicle -2.06736e-014 7.95139e-015
lhumerus -53.6515 16.2508 93.4811
lradius 47.2156
lwrist 6.61647
lhand 8.6621 15.2093
lfingers 7.12502
lthumb 33.8563 42.0248
rfemur -22.3417 -9.96024 27.6458
rtibia 37.5755
rfoot -27.0038 -19.0551
rtoes -20.696
lfemur -45.6952 11.4375 -19.1542
ltibia 44.8318
lfoot -17.701 -3.80708
ltoes 44.0454
68
root -13.3169 16.6852 -34.1425 13.9975 3.8015 -4.61718
lowerback -8.76679 -0.101535 -11.6343
upperback -8.79462 0.791063 11.0947
thorax -5.15006 1.64015 19.7171
lowerneck -1.28321 -0.639306 -10.4318
upperneck -2.662 -0.778675 -0.198647
head -0.579858 -0.288812 1.71123
rclavicle -3.81667e-014 -2.54444e-014
rhumerus -44.8502 30.041 -76.9069
rradius 40.871
rwrist 8.69197
rhand -17.8736 -14.5773
rfingers 7.12502
rthumb 8.39235 -44.3906
lclavicle -3.81667e-014 -2.54444e-014
lhumerus -54.5327 17.0052 92.9104
lradius 47.564
lwrist 6.57434
lhand 8.32293 16.4758
lfingers 7.12502
lthumb 33.534 43.3618
rfemur -21.9414 -12.1311 27.7271
rtibia 38.1493
rfoot -27.7149 -17.3607
rtoes -20.4763
lfemur -45.1695 10.1268 -18.3758
ltibia 45.1317
lfoot -17.967 -3.58627
ltoes 43.7088
